<?xml version="1.0" encoding="UTF-8"?><svg version="1.1" width="20px" height="20px" viewBox="0 0 20.0 20.0" xmlns="http://www.w3.org/2000/svg" xmlns:xlink="http://www.w3.org/1999/xlink"><defs><clipPath id="i0"><path d="M3250,0 L3250,5350 L0,5350 L0,0 L3250,0 Z"></path></clipPath><clipPath id="i1"><path d="M10,0 C15.5228475,0 20,4.4771525 20,10 C20,15.5228475 15.5228475,20 10,20 C4.4771525,20 0,15.5228475 0,10 C0,4.4771525 4.4771525,0 10,0 Z"></path></clipPath></defs><g transform="translate(-149.0 -2839.0)"><g clip-path="url(#i0)"><g transform="translate(20.0 2812.999999999999)"><g transform="translate(129.0 26.00000000000091)"><g clip-path="url(#i1)"><polygon points="0,0 20,0 20,20 0,20 0,0" stroke="none" fill="#E2F3F8"></polygon></g><g clip-path="url(#i1)"><path d="M10,0 C15.5228475,0 20,4.4771525 20,10 C20,15.5228475 15.5228475,20 10,20 C4.4771525,20 0,15.5228475 0,10 C0,4.4771525 4.4771525,0 10,0 Z" stroke="#939393" stroke-width="3" fill="none" stroke-miterlimit="5"></path></g></g></g></g></g></svg>