<?xml version="1.0" encoding="UTF-8"?><svg version="1.1" width="34px" height="14px" viewBox="0 0 34.0 14.0" xmlns="http://www.w3.org/2000/svg" xmlns:xlink="http://www.w3.org/1999/xlink"><defs><clipPath id="i0"><path d="M3250,0 L3250,5350 L0,5350 L0,0 L3250,0 Z"></path></clipPath><clipPath id="i1"><path d="M27,0 C30.8659932,-7.10171439e-16 34,3.13400675 34,7 C34,10.8659932 30.8659932,14 27,14 L7,14 C3.13400675,14 4.73447626e-16,10.8659932 0,7 C-4.73447626e-16,3.13400675 3.13400675,7.10171439e-16 7,0 L27,0 Z"></path></clipPath></defs><g transform="translate(-179.0 -2839.0)"><g clip-path="url(#i0)"><g transform="translate(20.0 2812.999999999999)"><g transform="translate(159.0 26.00000000000091)"><g clip-path="url(#i1)"><polygon points="0,0 34,0 34,14 0,14 0,0" stroke="none" fill="#FFFFFF"></polygon><path d="M7,0 L27,0 C30.8659932,-7.10171439e-16 34,3.13400675 34,7 C34,10.8659932 30.8659932,14 27,14 L7,14 C3.13400675,14 4.73447626e-16,10.8659932 0,7 C-4.73447626e-16,3.13400675 3.13400675,7.10171439e-16 7,0 Z" stroke="#939393" stroke-width="3" fill="none" stroke-miterlimit="5"></path></g></g></g></g></g></svg>