<svg width="14" height="16" viewBox="0 0 14 16" xmlns="http://www.w3.org/2000/svg">
    <defs>
        <clipPath id="8nveda9dma">
            <path d="M3250 0v5350H0V0h3250z"/>
        </clipPath>
        <clipPath id="e88u576qqb">
            <path d="m6.05 0 1.475 1.475-1.55 1.55c1.7 0 3.146.587 4.338 1.762C11.504 5.963 12.1 7.393 12.1 9.075c0 1.683-.588 3.113-1.762 4.288-1.175 1.175-2.605 1.762-4.288 1.762-1.683 0-3.112-.596-4.287-1.787C.588 12.146 0 10.707 0 9.024h2.1c0 1.1.383 2.042 1.15 2.825.767.783 1.7 1.175 2.8 1.175 1.1 0 2.033-.383 2.8-1.15.767-.767 1.15-1.7 1.15-2.8 0-1.1-.392-2.025-1.175-2.775S7.1 5.158 6 5.125l1.525 1.55L6.05 8.15 1.975 4.075 6.05 0z"/>
        </clipPath>
    </defs>
    <g clip-path="url(#8nveda9dma)" transform="translate(-26 -2978)">
        <g clip-path="url(#e88u576qqb)" transform="translate(26.95 2978.425)">
            <path d="M0 0h12.1v15.125H0V0z"/>
        </g>
    </g>
</svg>
