<svg width="19" height="13" viewBox="0 0 19 13" xmlns="http://www.w3.org/2000/svg">
    <defs>
        <clipPath id="isq2f2cdba">
            <path d="M3250 0v5350H0V0h3250z"/>
        </clipPath>
        <clipPath id="uahas4uvdb">
            <path d="M9.387 0c2.076 0 3.953.59 5.632 1.77 1.678 1.181 2.93 2.724 3.754 4.63-.825 1.906-2.076 3.449-3.754 4.63-1.679 1.18-3.556 1.77-5.632 1.77-2.077 0-3.954-.59-5.632-1.77C2.076 9.848.825 8.305 0 6.4c.825-1.906 2.076-3.449 3.755-4.63C5.433.59 7.31 0 9.387 0zm0 1.28c-1.721 0-3.303.466-4.747 1.397A9.22 9.22 0 0 0 1.323 6.4a9.22 9.22 0 0 0 3.317 3.723 8.579 8.579 0 0 0 4.747 1.397c1.72 0 3.303-.466 4.746-1.397A9.068 9.068 0 0 0 17.43 6.4a9.068 9.068 0 0 0-3.296-3.723A8.579 8.579 0 0 0 9.387 1.28zm0 1.493c1.01 0 1.866.352 2.57 1.056.704.704 1.056 1.561 1.056 2.571 0 1.01-.352 1.867-1.056 2.57-.704.705-1.56 1.057-2.57 1.057-1.01 0-1.867-.352-2.571-1.056C6.112 8.267 5.76 7.41 5.76 6.4c0-1.01.352-1.867 1.056-2.57.704-.705 1.56-1.057 2.57-1.057zm0 1.238c-.669 0-1.234.23-1.696.693A2.307 2.307 0 0 0 6.997 6.4c0 .668.231 1.234.694 1.696a2.307 2.307 0 0 0 1.696.693c.668 0 1.233-.23 1.696-.693a2.307 2.307 0 0 0 .693-1.696c0-.668-.231-1.234-.693-1.696a2.307 2.307 0 0 0-1.696-.693z"/>
        </clipPath>
    </defs>
    <g clip-path="url(#isq2f2cdba)" transform="translate(-112 -2939)">
        <g clip-path="url(#uahas4uvdb)" transform="translate(112.11 2939)">
            <path d="M0 0h18.773v12.8H0V0z"/>
        </g>
    </g>
</svg>
