<?xml version="1.0" encoding="UTF-8"?>
<svg width="55px" height="54px" viewBox="0 0 55 54" version="1.1" xmlns="http://www.w3.org/2000/svg" xmlns:xlink="http://www.w3.org/1999/xlink">
    <title>8619D741-4C0B-4E3F-A908-3A5FB8716244</title>
    <g id="Bio4Community-Design-v2-forZeplin" stroke="none" stroke-width="1" fill="none" fill-rule="evenodd">
        <g id="Bio4Community-Design-v2" transform="translate(-673, -1220)">
            <g id="Key-&amp;-Reset-Button-States" transform="translate(494, 1120)">
                <g id="resetButton" transform="translate(179, 100)">
                    <rect id="Rectangle" stroke="#CACACA" stroke-width="3" fill="#FFFFFF" x="1.5" y="1.5" width="52" height="51" rx="6"></rect>
                    <path d="M34.240497,17.0723226 L35.521364,17.0723226 C35.8919284,17.0723226 36.1282324,16.6750811 35.9254936,16.359991 L33.7857165,12.9652857 C33.6000973,12.6670233 33.1624026,12.6670233 32.9767834,12.9652857 L30.8198193,16.3437594 C30.6177545,16.6581871 30.8533878,17.056091 31.2239489,17.056091 L32.5048158,17.056091 L32.5048158,17.0890874 C32.4541345,19.9216523 30.0615709,22.2565059 27.1798898,22.2734 C24.0626462,22.3063963 21.5523384,19.7230647 21.770714,16.6251642 C21.9392136,14.0748289 24.0119278,11.9706947 26.6064855,11.7222531 C27.9716023,11.5896218 29.2354171,11.9538669 30.246415,12.6661985 C30.4820449,12.8318262 30.8025986,12.7658335 30.9539787,12.5173919 L31.3416627,11.8717089 C31.4765939,11.6562604 31.4087997,11.3748258 31.2067316,11.2260259 C30.0278912,10.4638735 28.6291924,10 27.1298825,10 C23.018828,10 19.7158978,13.4283277 20.0193656,17.5360602 C20.2721151,20.9643879 23.0858908,23.7302049 26.5736651,23.9786464 C30.735438,24.29372 34.2068679,21.0808242 34.2403993,17.0721371 L34.240497,17.0723226 Z" id="Path" fill="#CBCBCB" fill-rule="nonzero" transform="translate(28, 17) rotate(-90) translate(-28, -17)"></path>
                    <text id="Reset" font-family="Lato-Bold, Lato" font-size="14" font-weight="bold" fill="#CBCBCB">
                        <tspan x="9.69579191" y="41.4375">Reset</tspan>
                    </text>
                </g>
            </g>
        </g>
    </g>
</svg>