<?xml version="1.0" encoding="UTF-8"?>
<svg width="55px" height="54px" viewBox="0 0 55 54" version="1.1" xmlns="http://www.w3.org/2000/svg" xmlns:xlink="http://www.w3.org/1999/xlink">
    <title>B878BA51-5B6E-4D12-8C46-C16BC688315A</title>
    <g id="Bio4Community-Design-v2-forZeplin" stroke="none" stroke-width="1" fill="none" fill-rule="evenodd">
        <g id="Bio4Community-Design-v2" transform="translate(-502, -1294)">
            <g id="Key-&amp;-Reset-Button-States" transform="translate(494, 1120)">
                <g id="resultButton" transform="translate(8, 174)">
                    <rect id="Rectangle" stroke="#000000" stroke-width="3" fill="#FFFFFF" x="1.5" y="1.5" width="52" height="51" rx="6"></rect>
                    <text id="Result" font-family="Lato-Bold, Lato" font-size="14" font-weight="bold" fill="#000000">
                        <tspan x="7.56079191" y="41.4375">Result</tspan>
                    </text>
                    <path d="M27.5,12.3272516 C30.6834388,12.3168587 33.5915826,14.1305498 34.9827173,16.993963 C33.5915826,19.8573763 30.6834388,21.6710674 27.5,21.6606745 C24.3165612,21.6710674 21.4084174,19.8573763 20.0172827,16.993963 C21.4084174,14.1305498 24.3165612,12.3168587 27.5,12.3272516 M27.5,10.63 C23.257358,10.63 19.6351814,13.2687748 18.1666667,16.993963 C19.6351814,20.7191513 23.257358,23.3567283 27.5,23.3567283 C31.742642,23.3567283 35.3648186,20.7179535 36.8333333,16.993963 C35.3648186,13.2687748 31.742642,10.63 27.5,10.63 Z M27.5,14.8726419 C28.258089,14.872856 28.958478,15.2774893 29.3373371,15.9341206 C29.7161963,16.5907519 29.715968,17.3996233 29.3367382,18.0560406 C28.9575084,18.7124579 28.2568912,19.1166958 27.4988022,19.1164819 C26.3268982,19.1161511 25.3771505,18.165867 25.3774811,16.993963 C25.377812,15.822059 26.328096,14.8723113 27.5,14.8726419 M27.5,13.1753457 C25.3921303,13.1779854 23.6840224,14.8860933 23.6813826,16.993963 C23.684682,19.101365 25.3925971,20.8087443 27.5,20.8113826 C29.6074029,20.8087443 31.315318,19.101365 31.3186174,16.993963 C31.3159776,14.8860933 29.6078697,13.1779854 27.5,13.1753457 L27.5,13.1753457 Z" id="Shape" fill="#000000"></path>
                </g>
            </g>
        </g>
    </g>
</svg>