<?xml version="1.0" encoding="UTF-8"?>
<svg width="95px" height="216px" viewBox="0 0 95 216" version="1.1" xmlns="http://www.w3.org/2000/svg" xmlns:xlink="http://www.w3.org/1999/xlink">
    <title>F76478AF-0545-43A8-9D06-BA7C25034293</title>
    <g id="Bio4Community-Design-v2-forZeplin" stroke="none" stroke-width="1" fill="none" fill-rule="evenodd">
        <g id="Bio4Community-Design-v2" transform="translate(-135, -1671)">
            <g id="Gingerperson-&amp;-Magnify-Assets" transform="translate(92, 1607)">
                <g id="personBrainPrefrontalCortex" transform="translate(43, 64)">
                    <rect id="Rectangle" x="0" y="0" width="95" height="216"></rect>
                    <g id="Gingerbread-Person" transform="translate(10, 114)">
                        <path d="M39.1086386,77.4526148 L45.0963098,98.0226112 C45.7737691,100.365757 47.9306925,102 50.3418787,102 C51.8528025,102 53.310288,101.355942 54.3406984,100.23344 C55.3736945,99.1109383 55.9080772,97.5884195 55.8093888,96.054071 L55.0267768,84.4110736 C55.0233292,84.3615644 55.0216053,84.311617 55.0216053,84.2621078 L55.0216053,84.2467731 C55.0177268,84.2121604 55.0142791,84.1771096 55.0121244,84.1420588 L52.4664806,46.4519405 C52.4225233,45.8030626 52.6647194,45.167767 53.1271327,44.7182406 C53.589977,44.2687142 54.2256338,44.0531518 54.8604286,44.125444 L68.224735,45.6773179 C70.7552954,45.9669251 73.1358838,44.3357488 73.8611789,41.9014712 C73.8560075,41.7371706 73.8689361,41.5719937 73.9008267,41.407255 C74.4554642,38.5563111 72.6273584,35.7478662 69.8257281,35.1454307 L63.6187015,33.8222633 C63.5721585,33.8156912 63.5264774,33.8078048 63.483382,33.798604 L47.5984272,30.4048109 C46.7946985,30.233062 46.1573179,29.6122248 45.9539077,28.8034278 C45.7504976,27.9950688 46.016827,27.1393913 46.640417,26.5965422 C49.957037,23.7105475 51.8592668,19.5237302 51.8592668,15.109959 C51.8592668,6.77838534 45.1924125,0 36.9969653,0 C28.801949,0 22.1346637,6.77838534 22.1346637,15.109959 C22.1346637,19.5140912 24.0368935,23.6952127 27.3539444,26.5812074 C27.9775345,27.1240566 28.2438639,27.9801722 28.0404537,28.7885312 C27.8370436,29.5968901 27.199232,30.2177273 26.3955033,30.3894762 L4.17595953,35.139735 C1.37346737,35.7408561 -0.455500292,38.5501772 0.0991371684,41.4015592 C0.625762636,44.1131763 3.15675394,45.9932132 5.86486723,45.6869569 L19.2244331,44.1355211 C19.8596589,44.0610382 20.4953157,44.2787913 20.957729,44.7287558 C21.4205734,45.1778441 21.6623384,45.8131398 21.6188121,46.4620176 L19.0757541,84.1113894 C19.0731683,84.1709757 19.0692898,84.2301239 19.0632564,84.2897103 C19.0628255,84.3339619 19.0611016,84.3777754 19.0585159,84.4215889 L18.275473,96.070282 C18.1763536,97.5989347 18.7094434,99.1157578 19.737699,100.225992 C20.7771594,101.355065 22.2355069,102 23.742983,102 C26.1429644,102 28.3007498,100.361814 28.9902758,98.0164773 L34.9762232,77.4526148 C35.2472931,76.5220163 36.0880838,75.8836537 37.0426464,75.8836537 C37.9967779,75.8836537 38.8379996,76.5220163 39.1086386,77.4526148 Z" id="Path" fill="#70B3C3"></path>
                        <path d="M46.6086549,19.0830953 C46.6086549,19.0830953 43.9588084,21.9840003 39.361091,17.4660844 C39.361091,17.4660844 37.4499587,15.0593292 31.8802946,15.2244841 C31.8802946,15.2244841 26.7133814,16.0489436 25.1610294,12.1306734 C25.1610294,12.1306734 23.3586666,7.14653612 31.81376,4.47733822 C31.81376,4.47733822 40.6049976,2.06919726 46.7438936,8.07073523 C46.7438936,8.07073523 51.9093604,13.6422239 46.6082933,19.0829532 L46.6086549,19.0830953 Z" id="Path" fill="#BFE5EE"></path>
                    </g>
                    <g id="brainBubble_popup">
                        <g id="bubble">
                            <ellipse id="Oval-Copy-10" stroke="#70B3C3" stroke-width="2.28" cx="47.5" cy="47.6810891" rx="46.36" ry="46.5410891"></ellipse>
                            <polygon id="Path-9" fill="#70B3C3" points="40.8091067 93.6883223 48.5555556 106 55.9444444 93.6883223"></polygon>
                        </g>
                        <g id="brain" transform="translate(13, 23)">
                            <path d="M29.886652,0.00570372095 C30.5724481,0.00570372095 31.2494735,0.00570372095 31.9178104,0.0293368792 C32.7903986,2.1681188 33.3011018,4.22129196 32.2913499,6.17100861 C31.9586681,6.41915299 31.9032199,6.97158658 32.1746188,7.28475428 C32.4460176,7.60084872 32.9858718,7.6097121 33.2719284,7.30838744 C34.7864817,5.3320504 34.4888454,2.11204204 33.6688141,0.123907325 C37.4100363,0.380915086 40.9032283,1.02786618 44.0816012,1.97319251 C44.9716711,3.0455707 45.4035575,4.43104097 45.762529,5.7662955 C45.8150576,6.19759875 46.2849016,6.52255657 46.6963777,6.40734776 C47.1078539,6.29213895 47.3588276,5.76038911 47.1866483,5.36453938 C47.0057133,4.68804117 46.7255586,3.69547121 46.2761084,2.70877739 C49.8801669,4.00561387 53.0581663,5.72202398 55.7079808,7.73670346 C55.1914429,7.91099895 54.6311411,8.11779097 54.0971291,8.40138887 C53.008635,8.97449107 51.9288817,9.83412546 51.5757374,11.1753545 C51.4706832,11.5593914 51.7333263,11.9936289 52.1127005,12.1000349 C52.4920747,12.2063803 52.9181263,11.9641423 53.0232404,11.5771484 C53.2158448,10.8474775 53.8958286,10.2270711 54.797553,9.75145856 C55.5679409,9.34378847 56.4288747,9.07791733 57.1321749,8.87404447 C59.7236425,11.1103084 61.7196882,13.6626895 63.0621144,16.3923382 C61.6000808,18.9535676 60.9989064,22.0760939 58.6497164,23.3641577 C57.5991739,23.9313535 56.0232855,24.4867517 53.630242,25.0480486 C53.2450332,25.1337179 52.9619575,25.5827479 53.0465866,25.972729 C53.1312157,26.3626723 53.5718728,26.6285511 53.9571265,26.5428818 C56.4201712,25.9668226 58.1127534,25.3818698 59.3501404,24.717192 C62.113735,23.355317 62.7294775,20.2564617 63.8093055,18.0999076 C64.4805111,19.860559 64.8890588,21.6832994 65,23.5296352 C64.9737357,24.7792054 64.9387164,26.0613704 64.8132302,27.1336729 C62.3005794,27.0420973 59.0904557,28.7968423 59.023368,31.1187906 C59.0175318,31.5205543 59.3764824,31.8780011 59.770447,31.8780011 C60.1644116,31.8780011 60.5233532,31.5205468 60.517526,31.1187906 C61.1828895,29.3285694 62.793801,28.6373468 64.5563845,28.6520939 C64.036933,31.3817426 63.0126204,33.7952742 61.194529,35.6947751 C59.6565922,37.3018298 57.5203945,38.5780204 54.5875117,39.3697501 C48.5845825,31.3223761 45.9199012,24.4751884 46.2994173,17.2196198 C47.376257,17.1191807 48.5435679,17.1900779 49.4978119,17.4323182 C50.1748523,17.6036567 50.7410261,17.8636214 51.0853548,18.1442699 C51.4296835,18.4249184 51.5522792,18.658293 51.5522792,18.9744177 C51.546443,19.3761814 51.9053935,19.7336282 52.2993582,19.7336282 C52.6933228,19.7336282 53.0522644,19.3761738 53.0464372,18.9744177 C53.0464372,18.1531938 52.6086937,17.4383002 52.0192035,16.9596626 C51.4297134,16.481093 50.6885064,16.1708823 49.8713514,15.9641205 C49.0541964,15.7573285 48.152472,15.6332563 47.2565749,15.6332563 C46.4686307,15.6332563 45.6806865,15.7307459 44.9452619,15.893221 C43.4394495,15.724832 41.7497809,14.9922116 40.5328639,13.9729986 C39.1408316,12.8090372 38.4346178,11.4206175 38.8286273,10.0824135 C38.9920508,9.5920236 38.5163707,9.01003534 38.0114723,9.08687146 C37.7196483,9.12232196 37.4628324,9.3468362 37.3811244,9.63339108 C36.7624533,11.7278561 37.9122527,13.7662066 39.5756689,15.1576513 C40.8947116,16.2624731 42.5843802,16.9567207 44.2682216,17.2196727 C44.4053778,17.3673781 44.6038244,17.4560043 44.8051846,17.4560043 C44.6067455,20.9211925 45.2545974,24.4780395 46.5094212,27.9612267 C44.6942434,26.572807 42.9082763,26.0351054 41.2331758,25.7071906 C39.0211496,25.2758874 37.048338,25.0956855 34.9063131,23.5476872 C36.6543286,22.1237988 37.1300685,19.8638639 36.7740106,17.8786786 C36.3596134,15.5655785 35.0259952,13.4208977 33.0619245,12.9216142 C32.4578439,12.8093548 32.1105941,13.1224923 32.0813833,13.6571991 C32.0813833,14.0087395 32.3469475,14.3307403 32.688385,14.392784 C33.712705,14.6527487 34.9937961,16.2804872 35.3264704,18.1386206 C35.6212154,19.7929417 35.3060422,21.4443134 33.8790048,22.4782735 C33.0327137,21.8165451 31.8216239,21.7397392 30.9139977,21.6245304 C29.644561,21.4975012 28.5268561,21.2907092 27.4354484,20.69985 C26.9568547,20.3305828 26.6591586,20.4664754 26.3615224,20.7175752 C26.1251391,21.0129859 26.0813677,21.4944822 26.3615224,21.7662825 C27.6485153,22.8208885 29.2360582,22.9302439 30.7273026,23.1193091 C31.9705168,23.1074926 32.5687029,23.6303752 33.3887716,24.3039165 C36.0677221,26.5077368 38.6562762,26.7470178 40.9529464,27.19601 C43.3255199,27.6598098 45.4704584,28.2801859 47.9801209,31.5592582 C49.573491,34.4868205 51.34489,37.4291297 53.0695966,39.7185589 C50.7816672,40.1675889 48.0705922,40.3566541 44.8517276,40.2178122 C44.5978403,40.2059956 44.3410319,40.335978 44.1980335,40.5486764 C43.5239142,41.5737883 42.2778163,42.8558776 40.8594868,43.8455209 C39.4411574,44.8351641 37.8566028,45.5294118 36.610475,45.5294118 C36.1756526,45.5294118 35.656231,45.2074109 35.046241,44.5338697 C33.7709772,43.0124993 32.9246861,41.4527109 31.987849,39.8633526 C34.4391646,40.1617203 36.8992958,39.9047103 38.5714827,38.5339969 C38.8691489,38.3183415 38.8808182,37.8840888 38.7173947,37.5620502 C38.498523,37.1130202 37.9440185,37.1071138 37.6376414,37.3463948 C36.2777335,38.4601405 33.5345341,38.658054 30.9139304,38.1528716 C30.3069287,37.2636598 29.6678026,36.4601324 28.9295392,35.8752401 C28.1824602,35.1160297 27.671757,34.5547327 27.4820736,34.1677539 C27.1610612,33.0008431 27.9402422,32.4277484 28.766153,32.1294035 C29.4256818,32.05555 30.4762915,32.2298425 31.9412388,32.6050236 C32.5044691,32.7704557 33.0851661,32.0378278 32.8050115,31.5149489 C32.0141537,29.9078941 30.8381019,28.3185359 29.443156,27.1044344 C28.1124589,26.0793225 26.9013691,25.2137817 25.4042975,25.042413 C22.4801556,25.0512756 20.1543492,24.655419 18.5405092,23.881401 C16.65533,22.962695 16.0132903,22.0498123 15.6922705,20.3954912 C15.0006397,13.7013708 12.8119074,9.32004792 9.43548387,6.11803858 C11.4403451,4.68530199 13.7195337,3.45342834 16.2525797,2.46673453 C15.5988856,4.15357483 14.7613354,6.48732085 15.7156167,8.01753949 C15.9344885,8.35431011 16.4364284,8.45474914 16.7661592,8.23023792 C17.09589,8.00572669 17.1951469,7.49761001 16.9762752,7.16375856 C16.5472875,5.33511931 17.5132382,2.84482725 18.6338941,1.6129536 C22.2379526,0.443093358 26.5305191,0.0176965089 29.886398,0 L29.886652,0.00570372095 Z M28.6670072,6.35352143 C25.7975863,6.29574468 22.4392104,10.565757 23.16463,13.2895355 C23.27747,13.6416997 23.6804779,13.8480468 24.0243765,13.7324947 C24.368275,13.6169426 24.5885833,13.2014945 24.4757433,12.8493374 C24.6638146,10.6290832 26.5713925,7.83649178 28.6670416,7.77049621 C29.0297445,7.77875024 29.3548387,7.43758838 29.3548387,7.063421 C29.3548387,6.68925362 29.0297445,6.35085203 28.6670416,6.35634579 L28.6670072,6.35352143 Z M8.86658426,7.41176471 C12.1395429,10.2450857 14.1188754,14.3894899 14.8162867,20.6781851 C15.2301034,23.0687487 16.9027423,24.4405111 18.4741032,25.2566783 C19.4898465,25.7399921 20.6792388,26.052545 22.016129,26.255179 C20.829626,27.2594588 19.9498979,28.773028 18.8213273,29.6470588 C18.7923892,29.6065416 16.8071761,28.7122748 16.112728,28.4402191 C13.1638797,27.2941325 9.91988725,26.5619085 7.10727639,24.4434747 C6.12049935,23.922531 5.11920218,24.0643452 4.19028347,24.3508631 C2.50609511,25.2480098 1.38033957,26.6863785 0.486165486,28.2086902 C0.173626826,26.5908774 0,25.0078125 0,23.5607754 C0,21.87932 0.298062966,20.1428162 0.856540243,18.4266129 C1.31665837,20.1080684 2.91988213,20.5364524 4.23654791,20.8894877 C4.62721382,21.0689244 5.14524213,20.820029 5.25518035,20.4003801 C5.36514821,19.9836281 5.03524464,19.5061229 4.6069597,19.471375 C2.8851375,19.1327649 2.24269528,18.3773732 2.15298154,17.0548061 C3.56225027,16.1518064 4.83846708,15.4312143 6.48220648,15.3357133 C6.87287239,15.5151501 7.3909007,15.2662546 7.50083892,14.8466057 C7.61080678,14.4298537 7.28090321,13.9523485 6.85261827,13.9176007 C5.14813134,13.7063278 3.5218013,14.4674837 2.1993571,15.2431314 C3.70122877,12.4098104 5.95266577,9.70955377 8.86676947,7.41486164 L8.86658426,7.41176471 Z M6.26007936,25.5858557 C9.27974121,27.9476268 12.5769239,28.7369325 15.2796884,29.8502883 C17.8886165,30.9246168 19.9026188,32.1850936 20.9677419,35.4381178 C19.0415572,37.1366539 17.1747635,39.0363192 15.4609798,40.4738021 C13.4242799,42.1663457 11.370611,43.4117647 9.47836405,43.4117647 C8.48691772,43.4117647 7.37088794,42.7845532 6.26044194,41.5811655 C5.14999594,40.3777778 4.08211716,38.6372105 3.15586321,36.6175436 C2.29472912,34.7419247 1.5837043,32.6322183 1.0483871,30.4985423 C1.99451058,28.4998488 2.96043109,26.6843074 4.71953767,25.5829364 C5.31157008,25.3038445 5.71098401,25.4117647 6.26051446,25.5829364 L6.26007936,25.5858557 Z M24.5184387,26.4705882 C25.740635,26.4705882 27.0543494,27.1091062 28.2508268,28.1557974 C29.0808651,28.8846962 29.7850202,29.8148081 30.4032258,30.7769104 C29.7191549,30.6632047 28.9234744,30.4328674 28.3653528,30.4970125 C26.44479,30.9314364 25.1310023,32.8761445 25.9611139,34.6633857 C26.2616511,35.2756605 26.7453565,35.794621 27.3121244,36.371957 C25.9010299,39.4712102 24.0148323,42.2585453 22.3661863,44.5651277 C20.6631716,46.9500815 19.2463618,48.6702966 18.7483242,50.1135247 C18.3103998,51.2855877 18.0499431,52.8017385 17.9927314,54 C17.6235006,53.4285456 17.2399962,52.8920522 16.9164953,52.3147909 C16.2095265,51.0494285 15.7258065,49.8189975 15.7258065,48.9443726 C16.2839427,46.9180612 17.6091464,45.1074578 18.6338715,43.4426252 C20.1966414,40.9060787 21.91116,38.0837378 22.3203906,35.5793609 C22.4520551,33.7571137 20.6402371,31.7103511 19.3666031,30.5936706 C20.3368862,29.7627098 21.0152491,28.7043972 21.7479807,27.9025458 C22.7068332,27.0861396 23.5740943,26.4914126 24.5185853,26.4738724 L24.5184387,26.4705882 Z" id="Shape" fill="#70B3C3" fill-rule="nonzero" transform="translate(32.5, 27) scale(-1, 1) translate(-32.5, -27)"></path>
                            <ellipse id="markerPrefrontalCortex" fill="#9137A8" cx="14.6774194" cy="23.7754011" rx="12.5806452" ry="12.7058824"></ellipse>
                            <ellipse id="markerAmygdala" fill="#BFE5EE" cx="34.5967742" cy="28.0106952" rx="4.19354839" ry="4.23529412"></ellipse>
                        </g>
                    </g>
                </g>
            </g>
        </g>
    </g>
</svg>