<?xml version="1.0" encoding="UTF-8"?>
<svg width="92px" height="127px" viewBox="0 0 92 127" version="1.1" xmlns="http://www.w3.org/2000/svg" xmlns:xlink="http://www.w3.org/1999/xlink">
    <title>D60F2B61-F9F4-44E5-A31B-ACA3CF7E27BB</title>
    <g id="Bio4Community-Design-v2-forZeplin" stroke="none" stroke-width="1" fill="none" fill-rule="evenodd">
        <g id="Bio4Community-Design-v2" transform="translate(-508, -1716)">
            <g id="Gingerperson-&amp;-Magnify-Assets" transform="translate(92, 1607)">
                <g id="personArtery" transform="translate(416, 109)">
                    <rect id="Rectangle" x="0" y="0" width="92" height="127"></rect>
                    <g id="Gingerbread-Person" fill="#70B3C3">
                        <path d="M48.6215507,96.4360989 L56.0656825,122.047761 C56.9079291,124.965207 59.5895096,127 62.5872005,127 C64.4656464,127 66.2776554,126.198084 67.5587062,124.80046 C68.8429716,123.402835 69.5073392,121.50715 69.3846455,119.596735 L68.4116684,105.100062 C68.4073822,105.038418 68.4052391,104.976229 68.4052391,104.914585 L68.4052391,104.895492 C68.4004171,104.852396 68.3961308,104.808754 68.3934519,104.765112 L65.2285975,57.83722 C65.1739479,57.0293035 65.4750565,56.2382981 66.0499488,55.6785937 C66.6253768,55.1188892 67.4156528,54.8504929 68.2048572,54.9405039 L84.8199408,56.872739 C87.9660429,57.2333283 90.9256934,55.2023539 91.8274117,52.1714396 C91.8209823,51.9668693 91.8370557,51.7612079 91.8767035,51.556092 C92.5662527,48.0063873 90.2934726,44.5095982 86.8103647,43.7595069 L79.0935207,42.1120337 C79.0356565,42.1038509 78.9788637,42.0940315 78.9252857,42.0825755 L59.176423,37.8569704 C58.1771927,37.6431262 57.3847736,36.8701231 57.1318853,35.8630914 C56.878997,34.8566053 57.2101092,33.7912029 57.9853834,33.1153025 C62.1087487,29.5219561 64.4736831,24.3089581 64.4736831,18.8133803 C64.4736831,8.4397543 56.1851615,0 45.9962271,0 C35.8078285,0 27.5187711,8.4397543 27.5187711,18.8133803 C27.5187711,24.2969567 29.8837054,29.5028629 34.0076066,33.0962093 C34.7828807,33.7721097 35.1139929,34.8380576 34.8611046,35.8445437 C34.6082163,36.8510298 33.8152614,37.624033 32.8160311,37.8378772 L5.19173347,43.7524151 C1.70755403,44.5008698 -0.566297661,47.99875 0.123251615,51.5490002 C0.777975169,54.9252293 3.92461301,57.2660596 7.29145655,56.8847404 L23.9006466,54.9530508 C24.6903868,54.8603123 25.4806627,55.1314362 26.055555,55.6916862 C26.6309831,56.2508451 26.9315558,57.0418505 26.877442,57.849767 L23.7158023,104.726926 C23.7125877,104.801117 23.7077656,104.874762 23.7002647,104.948953 C23.6997289,105.004051 23.6975858,105.058603 23.6943711,105.113155 L22.7208583,119.61692 C22.5976288,121.520242 23.2603891,123.408836 24.5387609,124.791186 C25.8310631,126.196993 27.6441437,127 29.5183032,127 C32.5020639,127 35.1847159,124.960297 36.0419645,122.040124 L43.4839531,96.4360989 C43.820959,95.2774124 44.8662664,94.4825884 46.0530198,94.4825884 C47.2392374,94.4825884 48.2850806,95.2774124 48.6215507,96.4360989 Z" id="Path"></path>
                    </g>
                    <circle id="Oval" fill="#BFE5EE" cx="51" cy="54.4545455" r="7"></circle>
                </g>
            </g>
        </g>
    </g>
</svg>