<?xml version="1.0" encoding="UTF-8"?>
<svg width="80px" height="181px" viewBox="0 0 80 181" version="1.1" xmlns="http://www.w3.org/2000/svg" xmlns:xlink="http://www.w3.org/1999/xlink">
    <title>373615C9-444A-42D0-B4C2-5C0D95D0D681</title>
    <g id="Bio4Community-Design-v2-forZeplin" stroke="none" stroke-width="1" fill="none" fill-rule="evenodd">
        <g id="Bio4Community-Design-v2" transform="translate(-321, -1675)">
            <g id="Gingerperson-&amp;-Magnify-Assets" transform="translate(92, 1607)">
                <g id="personBrainPrefrontalCortex" transform="translate(229, 68)">
                    <rect id="Rectangle" x="0" y="0" width="80" height="181"></rect>
                    <g id="Gingerbread-Person" transform="translate(9.16, 96)">
                        <path d="M32.5905321,64.5438457 L37.5802582,81.6855093 C38.1448076,83.6381306 39.9422438,85 41.9515656,85 C43.2106688,85 44.42524,84.4632847 45.2839154,83.5278667 C46.1447455,82.5924486 46.5900643,81.3236829 46.507824,80.0450592 L45.8556473,70.3425614 C45.8527743,70.3013037 45.8513378,70.2596808 45.8513378,70.2184231 L45.8513378,70.2056442 C45.8481056,70.1768003 45.8452326,70.1475913 45.843437,70.1183823 L43.7220672,38.7099504 C43.6854361,38.1692189 43.8872661,37.6398058 44.2726106,37.2652005 C44.6583142,36.8905951 45.1880282,36.7109598 45.7170239,36.7712034 L56.8539458,38.0644316 C58.9627461,38.3057709 60.9465698,36.9464573 61.5509825,34.9178927 C61.5466729,34.7809755 61.5574468,34.6433281 61.5840222,34.5060458 C62.0462201,32.1302592 60.5227987,29.7898885 58.1881068,29.2878589 L53.0155846,28.1852194 C52.9767987,28.1797427 52.9387311,28.1731707 52.9028183,28.1655033 L39.665356,25.3373424 C38.9955821,25.1942183 38.4644316,24.676854 38.2949231,24.0028565 C38.1254146,23.329224 38.3473558,22.6161594 38.8670142,22.1637851 C41.6308642,19.7587895 43.2160557,16.2697751 43.2160557,12.5916325 C43.2160557,5.64865445 37.6603437,0 30.8308044,0 C24.0016241,0 18.4455531,5.64865445 18.4455531,12.5916325 C18.4455531,16.2617427 20.0307446,19.7460106 22.7949537,22.1510062 C23.3146121,22.6033805 23.5365532,23.3168102 23.3670448,23.9904426 C23.1975363,24.6640751 22.6660267,25.1814394 21.9962528,25.3245635 L3.47996627,29.2831125 C1.14455614,29.7840467 -0.379583577,32.1251477 0.082614307,34.5012994 C0.521468863,36.7609802 2.63062828,38.3276777 4.88738936,38.0724641 L16.0203609,36.779601 C16.5497158,36.7175318 17.0794297,36.8989927 17.4647742,37.2739632 C17.8504778,37.6482034 18.0519487,38.1776165 18.0156767,38.718348 L15.8964617,70.0928245 C15.894307,70.1424798 15.8910748,70.1917699 15.886047,70.2414252 C15.8856879,70.2783016 15.8842514,70.3148128 15.8820966,70.3513241 L15.2295608,80.0585683 C15.1469613,81.3324456 15.5912028,82.5964649 16.4480825,83.5216598 C17.3142995,84.4625545 18.5295891,85 19.7858192,85 C21.7858037,85 23.5839581,83.6348446 24.1585631,81.6803978 L29.1468526,64.5438457 C29.3727442,63.7683469 30.0734032,63.2363781 30.868872,63.2363781 C31.6639816,63.2363781 32.3649997,63.7683469 32.5905321,64.5438457 Z" id="Path" fill="#70B3C3"></path>
                        <path d="M38.8405457,15.9025794 C38.8405457,15.9025794 36.6323403,18.3200003 32.8009091,14.5550704 C32.8009091,14.5550704 31.2082989,12.549441 26.5669121,12.6870701 C26.5669121,12.6870701 22.2611512,13.3741197 20.9675245,10.1088945 C20.9675245,10.1088945 19.4655555,5.95544677 26.5114667,3.73111519 C26.5114667,3.73111519 33.837498,1.72433105 38.9532446,6.72561269 C38.9532446,6.72561269 43.2578003,11.3685199 38.8402444,15.902461 L38.8405457,15.9025794 Z" id="Path" fill="#BFE5EE"></path>
                    </g>
                    <g id="brainBubble_popup" transform="translate(0, 0)">
                        <g id="bubble" transform="translate(32.43, 78.6883)" fill="#70B3C3">
                            <polygon id="Path-9" points="0 0 7.74644887 12.3116777 15.1353378 0"></polygon>
                        </g>
                        <g id="Group">
                            <circle id="Oval-Copy-10" stroke="#70B3C3" stroke-width="2.28" cx="40" cy="40" r="38.86"></circle>
                            <g id="brain" transform="translate(10.6316, 16.5789)">
                                <path d="M26.7406886,0.00510332927 C27.3542957,0.00510332927 27.9600552,0.00510332927 28.5580408,0.0262487867 C29.3387777,1.93989577 29.7957227,3.77694544 28.8922604,5.52142876 C28.5945978,5.74345268 28.5449862,6.23773536 28.7878168,6.51793804 C29.0306473,6.80075938 29.5136748,6.80868977 29.7696201,6.5390835 C31.1247467,4.77078194 30.8584406,1.88972182 30.1247284,0.110864449 C33.4721378,0.340818761 36.5976253,0.919669737 39.4414327,1.76548803 C40.237811,2.72498431 40.6242357,3.9646156 40.9454207,5.15931703 C40.99242,5.54521994 41.4128067,5.83597167 41.7809695,5.7328901 C42.1491324,5.62980853 42.3736879,5.15403236 42.2196327,4.79985102 C42.0577434,4.19456315 41.8070788,3.30647424 41.4049391,2.42364293 C44.6296231,3.5839703 47.4730962,5.11970567 49.8439828,6.92231362 C49.3818173,7.07826221 48.8804947,7.26328666 48.4026944,7.51703215 C47.4287787,8.0298078 46.4626836,8.79895436 46.1467125,9.99900136 C46.0527165,10.3426133 46.287713,10.7311417 46.6271531,10.826347 C46.9665931,10.9214982 47.3477973,10.7047589 47.4418466,10.3585012 C47.6141769,9.70563774 48.2225835,9.15053734 49.0293895,8.72498924 C49.7186839,8.36023179 50.4889931,8.12234709 51.1182617,7.93993453 C53.4369433,9.94080229 55.2228789,12.2245117 56.4239971,14.6668289 C55.1158618,16.9584552 54.5779688,19.7522945 52.4760621,20.9047727 C51.536103,21.4122637 50.1260976,21.9091988 47.9849534,22.4114119 C47.6402928,22.4880634 47.3870146,22.889827 47.4627354,23.2387575 C47.5384561,23.5876542 47.9327283,23.8255457 48.2774289,23.7488942 C50.4812058,23.2334729 51.9956215,22.710094 53.1027572,22.1153823 C55.5754471,20.8968626 56.1263746,18.1242026 57.0925365,16.1946542 C57.6930889,17.7699739 58.0586315,19.4008469 58.1578947,21.0528315 C58.1343951,22.170868 58.103062,23.3180682 57.990785,24.2774968 C55.7426237,24.1955607 52.8704077,25.7655957 52.8103819,27.8431285 C52.80516,28.2026012 53.1263263,28.522422 53.478821,28.522422 C53.8313157,28.522422 54.1524739,28.2025945 54.1472601,27.8431285 C54.7425853,26.2413516 56.1839272,25.6228893 57.7609756,25.636084 C57.2962032,28.0784013 56.379713,30.2378769 54.7529996,31.9374303 C53.3769509,33.3753214 51.4656161,34.5171761 48.8414579,35.2255659 C43.470416,28.0252839 41.0862274,21.8988528 41.4257944,15.4070282 C42.3892826,15.3171617 43.4337187,15.3805961 44.2875159,15.5973373 C44.8932889,15.7506402 45.3998654,15.9832402 45.707949,16.2343468 C46.0160326,16.4854533 46.1257235,16.6942622 46.1257235,16.9771106 C46.1205016,17.3365833 46.4416679,17.6564042 46.7941626,17.6564042 C47.1466572,17.6564042 47.4678155,17.3365766 47.4626017,16.9771106 C47.4626017,16.2423313 47.0709365,15.6026897 46.5434979,15.1744349 C46.0160593,14.7462411 45.3528742,14.4686842 44.6217355,14.2836868 C43.8905968,14.0986623 43.0837908,13.9876504 42.2821986,13.9876504 C41.5771959,13.9876504 40.8721932,14.0748779 40.2141817,14.2202504 C38.8668758,14.0695865 37.3550671,13.4140841 36.2662467,12.5021566 C35.0207441,11.4607175 34.3888686,10.2184472 34.7414034,9.02110684 C34.8876244,8.58233691 34.4620159,8.06161057 34.0102647,8.13035868 C33.749159,8.16207754 33.5193764,8.36295871 33.4462692,8.61934992 C32.8927214,10.4933449 33.9214893,12.3171322 35.4098091,13.562109 C36.5900051,14.5506338 38.1018139,15.1718028 39.6084088,15.4070756 C39.7311275,15.539233 39.908685,15.6185302 40.0888494,15.6185302 C39.9112986,18.7189617 40.4909556,21.9014038 41.6136927,25.0179397 C39.9895862,23.7756695 38.3916156,23.294568 36.8928415,23.0011706 C34.9136601,22.6152677 33.148513,22.4540344 31.2319644,21.0689833 C32.7959782,19.7949779 33.2216402,17.7729308 32.9030621,15.9967124 C32.5322857,13.9270966 31.3390483,12.0081717 29.5817219,11.5614443 C29.0412287,11.4610017 28.7305316,11.7411773 28.7043956,12.2195992 C28.7043956,12.5341353 28.9420056,12.8222413 29.2475024,12.8777541 C30.1639992,13.1103541 31.3102386,14.5667517 31.6078945,16.2292922 C31.8716138,17.7094742 31.5896167,19.1870172 30.3127938,20.1121395 C29.5555859,19.5200667 28.4719793,19.4513456 27.6598926,19.348264 C26.5240809,19.2346064 25.5240292,19.0495819 24.5475065,18.5209184 C24.119291,18.1905215 23.8529314,18.3121096 23.5866253,18.5367778 C23.3751244,18.8010927 23.3359606,19.2319052 23.5866253,19.4750948 C24.7381453,20.4186897 26.1585784,20.516534 27.4928497,20.6856976 C28.6051992,20.6751249 29.1404184,21.1429673 29.874164,21.7456095 C32.2711198,23.7174487 34.5871945,23.9315423 36.64211,24.3332721 C38.7649389,24.7482509 40.6840944,25.3033242 42.9295819,28.2372311 C44.3552288,30.8566288 45.9401648,33.4892214 47.4833233,35.5376579 C45.4362285,35.9394216 43.0105299,36.1085853 40.1304931,35.9843583 C39.9033308,35.9737855 39.6735548,36.0900855 39.5456089,36.2803947 C38.9424496,37.1976 37.8275199,38.3447326 36.5584882,39.2302029 C35.2894566,40.1156731 33.8716972,40.7368421 32.7567408,40.7368421 C32.3676892,40.7368421 31.9029436,40.4487361 31.357163,39.8460939 C30.2161375,38.4848678 29.4589296,37.0892676 28.620707,35.6672102 C30.8139894,35.9341708 33.0151594,35.7042144 34.5113266,34.4777867 C34.7776595,34.2848319 34.7881005,33.89629 34.6418795,33.6081502 C34.4460469,33.2063865 33.9499113,33.2011018 33.6757844,33.4151953 C32.4590247,34.4117046 30.0045832,34.5887851 27.6598325,34.1367798 C27.1167257,33.3411693 26.5448761,32.6222238 25.8843245,32.0988991 C25.2158854,31.4196055 24.7589405,30.9173924 24.5892238,30.5711482 C24.3020022,29.5270701 24.9991641,29.0143012 25.7381369,28.747361 C26.3282416,28.6812816 27.2682609,28.8372275 28.5790031,29.1729159 C29.082946,29.3209341 29.6025171,28.6654249 29.3518524,28.1975859 C28.6442428,26.7596948 27.5919859,25.3376374 26.3438764,24.251336 C25.1532527,23.3341307 24.069646,22.5596994 22.7301609,22.4063695 C20.1138234,22.4142992 18.0328388,22.0601118 16.5888766,21.3675693 C14.9021374,20.5455692 14.3276808,19.7287794 14.0404526,18.2485974 C13.421625,12.2591212 11.4632856,8.33899025 8.44227504,5.47403451 C10.2360982,4.19211231 12.2753722,3.08990957 14.5417819,2.20707826 C13.9568977,3.71635643 13.2075106,5.80444497 14.0613413,7.17358797 C14.2571739,7.47490904 14.7062781,7.56477555 15.0013003,7.36389708 C15.2963226,7.16301862 15.3851314,6.7083879 15.1892988,6.40967871 C14.8054677,4.7735278 15.6697394,2.54537175 16.6724315,1.44316901 C19.8971155,0.396451952 23.7378329,0.0158337185 26.7404613,0 L26.7406886,0.00510332927 Z M25.6494275,5.6847297 C23.0820509,5.63303471 20.0771882,9.45357207 20.7262479,11.8906371 C20.82721,12.2057313 21.187796,12.3903576 21.4954947,12.2869689 C21.8031935,12.1835802 22.0003114,11.8118635 21.8993493,11.4967755 C22.0676236,9.51023232 23.7744038,7.01159791 25.6494582,6.95254924 C25.9739819,6.95993442 26.2648557,6.65468434 26.2648557,6.319903 C26.2648557,5.98512166 25.9739819,5.68234129 25.6494582,5.68725676 L25.6494275,5.6847297 Z M7.9332596,6.63157895 C10.8616963,9.16665559 12.632678,12.8748068 13.2566776,18.5015341 C13.6269346,20.6404594 15.1235063,21.8678258 16.5294608,22.5980806 C17.4382837,23.0305192 18.5024768,23.3101718 19.6986418,23.491476 C18.6370338,24.3900421 17.8499087,25.7442882 16.8401349,26.5263158 C16.814243,26.4900636 15.0379996,25.6899301 14.4166514,25.4465118 C11.7782082,24.421066 8.8756886,23.7659182 6.35914203,21.8704774 C5.47623626,21.4043698 4.58033879,21.5312562 3.749201,21.7876144 C2.24229562,22.5903246 1.23504067,23.877286 0.434990171,25.2393544 C0.155350318,23.7918377 0,22.3754112 0,21.0806938 C0,19.5762337 0.266687917,18.0225198 0.766378112,16.4869695 C1.17806275,17.9914296 2.61252611,18.3747206 3.79059549,18.6905942 C4.14013868,18.8511429 4.60363769,18.628447 4.70200347,18.2529717 C4.80039576,17.8800883 4.50521889,17.4528468 4.12201658,17.4217566 C2.58143882,17.1187897 2.00662209,16.4429129 1.9263519,15.2595633 C3.18727655,14.4516162 4.32915475,13.806876 5.79986895,13.7214277 C6.14941214,13.8819764 6.61291115,13.6592805 6.71127693,13.2838051 C6.80966922,12.9109218 6.51449235,12.4836803 6.13129003,12.4525901 C4.60622278,12.2635564 3.15108537,12.9445906 1.96784582,13.6385912 C3.31162575,11.1035146 5.32606937,8.68749548 7.93342532,6.63434989 L7.9332596,6.63157895 Z M5.60112364,22.8926078 C8.30292635,25.0057713 11.2530372,25.7119922 13.6713002,26.7081527 C16.0056042,27.669394 17.8076063,28.797189 18.7606112,31.7077896 C17.0371828,33.2275324 15.3668937,34.927233 13.8335083,36.2134018 C12.0111978,37.727783 10.1737046,38.8421053 8.48064152,38.8421053 C7.59355796,38.8421053 6.595005,38.2809161 5.60144805,37.2042007 C4.60789111,36.1274854 3.65242062,34.5701357 2.82366708,32.7630654 C2.05317869,31.08488 1.41699859,29.1972479 0.93803056,27.2881694 C1.7845621,25.4998647 2.64880677,23.875433 4.22274423,22.8899957 C4.75245744,22.6402819 5.1098278,22.7368421 5.60151294,22.8899957 L5.60112364,22.8926078 Z M21.9375505,23.6842105 C23.0310945,23.6842105 24.2065232,24.2555161 25.2770556,25.1920292 C26.0197214,25.8442019 26.6497549,26.6764072 27.2028862,27.5372356 C26.5908228,27.4354989 25.8788981,27.2294077 25.3795262,27.2868007 C23.6611279,27.6754957 22.4856337,29.4154977 23.2283651,31.0146083 C23.4972668,31.562433 23.9300558,32.0267661 24.4371639,32.54333 C23.1746057,35.316346 21.4869553,37.8102773 20.0118509,39.8740616 C18.4881009,42.0079677 17.220429,43.5471075 16.7748164,44.8384168 C16.3829893,45.8871048 16.1499491,47.2436608 16.0987597,48.3157895 C15.7683953,47.8044881 15.4252598,47.3244678 15.1358115,46.8079708 C14.5032606,45.6758045 14.0704584,44.5748925 14.0704584,43.7923334 C14.5698435,41.9793179 15.755552,40.3593044 16.6724113,38.8697173 C18.0706791,36.6001757 19.6047221,34.0749233 19.9708758,31.834165 C20.0886809,30.2037333 18.4675806,28.3724194 17.3280133,27.3732842 C18.1961614,26.6297929 18.8031176,25.6828817 19.4587196,24.9654357 C20.3166402,24.2349671 21.0926107,23.7028429 21.9376816,23.687149 L21.9375505,23.6842105 Z" id="Shape" fill="#70B3C3" fill-rule="nonzero" transform="translate(29.0789, 24.1579) scale(-1, 1) translate(-29.0789, -24.1579)"></path>
                                <circle id="markerPrefrontalCortex" fill="#BFE5EE" cx="13.3684211" cy="21.4210526" r="11"></circle>
                                <circle id="markerAmygdala" fill="#DD4141" cx="31.3684211" cy="25.4210526" r="4"></circle>
                            </g>
                        </g>
                    </g>
                </g>
            </g>
        </g>
    </g>
</svg>